<svg width="96" height="96" xmlns="http://www.w3.org/2000/svg" xmlns:xlink="http://www.w3.org/1999/xlink" xml:space="preserve" overflow="hidden"><g transform="translate(-199 -265)"><path d="M254.1 337.5C254.1 341.4 251 344.5 247.1 344.5 243.2 344.5 240.1 341.4 240.1 337.5 240.1 333.6 247.1 323.5 247.1 323.5 247.1 323.5 254.1 333.7 254.1 337.5Z"/><path d="M269.1 333.5C269.1 336.3 266.9 338.5 264.1 338.5 261.3 338.5 259.1 336.3 259.1 333.5 259.1 330.7 264.1 323.5 264.1 323.5 264.1 323.5 269.1 330.8 269.1 333.5Z"/><path d="M235.1 333.5C235.1 336.3 232.9 338.5 230.1 338.5 227.3 338.5 225.1 336.3 225.1 333.5 225.1 330.7 230.1 323.5 230.1 323.5 230.1 323.5 235.1 330.8 235.1 333.5Z"/><path d="M281.1 310C281.1 307.2 279.9 304.6 277.8 302.8 275.7 301 272.9 300.2 270.1 300.7L270.1 300.6C270.1 296.8 268.3 293.1 265.1 290.9 262 288.6 258 288 254.3 289.2 251.2 283.4 244.5 280.4 238.1 282 231.7 283.5 227.1 289.2 227 295.8 222.6 295 218.1 296.7 215.4 300.2 212.6 303.7 212 308.4 213.8 312.5 215.6 316.6 219.5 319.3 224 319.6L272 319.6C277.2 319.3 281.1 315.1 281.1 310Z"/></g></svg>